# xmcd
#
# Track frame offsets: 
#        150
#        13895
#        26285
#        40447
#        54045
#        71315
#        86285
#        104242
#        118950
#        130077
#
# Disc length: 1972 seconds
#
# Revision: 4
# Processed by: cddbd v1.5.2PL0 Copyright (c) Steve Scherf et al.
# Submitted via: ExactAudioCopy v1.0b3
#
DISCID=7f07b20a
DTITLE=Lonnie Mack - Roadhouses and Dance Halls
DYEAR=1988
DGENRE=Music
TTITLE0=Too Rock For Country, Too Country For Rock And Roll
TTITLE1=50's - 60's Man
TTITLE2=Lucille
TTITLE3=Sexy Ways - Annie Had A Baby
TTITLE4=Plain Jane (In A Mustang)
TTITLE5=Honky Tonk Man
TTITLE6=Riding The Blinds
TTITLE7=High Blood Pressure
TTITLE8=Cocaine Blues
TTITLE9=Hard Life
EXTD=
EXTT0=
EXTT1=
EXTT2=
EXTT3=
EXTT4=
EXTT5=
EXTT6=
EXTT7=
EXTT8=
EXTT9=
PLAYORDER=
